<svg width="123" height="123" viewBox="0 0 123 123" fill="none" xmlns="http://www.w3.org/2000/svg">
<g clip-path="url(#clip0_59_27)">
<path fill-rule="evenodd" clip-rule="evenodd" d="M66.0989 11.8858C71.921 20.6199 73.6897 31.1991 72.8877 42.0087C71.6762 58.3332 64.6044 75.1873 56.621 87.1172C51.6042 94.6156 45.7036 98.0115 39.2184 104.22C38.9559 104.472 38.9467 104.889 39.1983 105.151C39.4483 105.413 39.8666 105.423 40.1275 105.171C46.6886 98.8893 52.6392 95.4346 57.7152 87.8488C65.8097 75.7526 72.9707 58.6594 74.2 42.1059C75.0243 30.9982 73.1772 20.132 67.1943 11.156C66.9928 10.8535 66.5852 10.7712 66.2827 10.9727C65.9802 11.1742 65.8975 11.5834 66.0989 11.8858Z" fill="black"/>
<path fill-rule="evenodd" clip-rule="evenodd" d="M38.5488 106.106C38.5673 106.09 38.6878 105.982 38.7983 105.903C39.2542 105.57 40.1053 105.062 41.217 104.484C44.9484 102.549 51.6035 99.8456 56.2872 100.64C56.5574 100.685 56.8129 100.503 56.8587 100.233C56.9044 99.9627 56.7237 99.7062 56.4535 99.6605C51.5802 98.8344 44.6421 101.59 40.7601 103.604C40.2403 103.874 39.7737 104.129 39.3753 104.362C40.0003 103.099 40.6565 101.855 41.3286 100.615C43.2645 97.0462 44.1999 93.5578 44.4396 89.4744C44.4563 89.2017 44.2468 88.9661 43.9737 88.9507C43.701 88.9341 43.4654 89.1436 43.45 89.4166C43.2185 93.3468 42.3198 96.7063 40.4569 100.142C39.579 101.762 38.7271 103.392 37.9349 105.056C37.856 105.222 37.6558 105.654 37.6373 105.719C37.5312 106.09 37.8093 106.262 37.8726 106.297C37.903 106.314 38.2929 106.504 38.5488 106.106ZM37.734 105.54C37.7271 105.551 37.7191 105.562 37.7119 105.575C37.7172 105.564 37.7253 105.554 37.734 105.54Z" fill="black"/>
</g>
<defs>
<clipPath id="clip0_59_27">
<rect width="100.538" height="100.538" fill="white" transform="translate(25.7709) rotate(14.8523)"/>
</clipPath>
</defs>
</svg>
