<svg width="709" height="99" viewBox="0 0 709 99" fill="none" xmlns="http://www.w3.org/2000/svg">
<path d="M95.4661 38.5595V38.777C88.8152 57.7228 68.7996 77.8955 63.6859 81.5294C58.5722 85.1633 52.7056 85.9708 45.7723 85.9708C36.2822 85.9708 28.9724 81.6226 23.043 74.6499C17.0606 67.5537 13.8884 58.5461 14.1176 49.3059C13.8592 40.1519 17.0141 31.2241 22.9803 24.2259C25.8 20.8972 29.3459 18.2452 33.3509 16.4699C37.3559 14.6945 41.7156 13.842 46.1017 13.9765C52.6277 13.8268 59.0238 15.7958 64.3134 19.5826L73.1133 8.91389C65.5996 3.10589 56.4703 0.279541 45.9292 0.279541C39.7592 0.151041 33.6338 1.34141 27.9707 3.76945C22.3076 6.1975 17.2401 9.80611 13.1137 14.3492C4.37122 23.7082 0 35.4226 0 49.4922C0 63.5774 4.37645 75.3021 13.1921 84.8061C17.3201 89.3887 22.4027 93.0307 28.0896 95.4811C33.7764 97.9315 39.9324 99.132 46.1331 99H46.2743C56.784 98.2235 59.1056 98.0061 66.2741 94.3412C79.1525 87.7412 92.9407 69.0748 96.0779 63.2824C96.3767 62.7974 96.6089 62.2752 96.7681 61.7294L95.4661 38.5595Z" fill="#5C57FF"/>
<path d="M278.493 14.2094C274.27 9.7678 269.174 6.22853 263.519 3.80931C257.863 1.39009 251.767 0.14209 245.606 0.14209C239.445 0.14209 233.35 1.39009 227.694 3.80931C222.039 6.22853 216.943 9.7678 212.72 14.2094C209.489 17.6377 206.788 21.5208 204.705 25.7322C201.191 33.1131 199.436 41.1941 199.575 49.3524C199.563 51.2397 199.647 53.1263 199.826 55.0051C200.622 66.0516 205.192 76.5011 212.783 84.6353C216.904 89.2272 221.985 92.8765 227.673 95.3302C233.362 97.7839 239.521 98.9831 245.724 98.8447C251.908 98.9786 258.047 97.7767 263.715 95.3227C269.382 92.8688 274.441 89.2217 278.54 84.6353C287.282 75.152 291.664 63.3858 291.685 49.3369C291.638 35.2362 287.23 23.5736 278.493 14.2094ZM268.94 74.976C266.124 78.3577 262.563 81.0563 258.531 82.8652C254.499 84.6741 250.102 85.5452 245.677 85.4117V85.303C241.252 85.4143 236.859 84.535 232.826 82.7307C228.793 80.9264 225.223 78.2438 222.383 74.8828C216.28 67.7134 213.057 58.5694 213.332 49.1971C213.065 39.9831 216.301 31.0055 222.399 24.0395C225.326 20.8076 228.909 18.2227 232.913 16.4531C236.917 14.6834 241.253 13.7688 245.638 13.7688C250.023 13.7688 254.359 14.6834 258.363 16.4531C262.367 18.2227 265.949 20.8076 268.877 24.0395C274.993 31.008 278.236 40.0005 277.959 49.2282C278.249 58.6162 275.039 67.7815 268.94 74.976Z" fill="#5C57FF"/>
<path d="M368.421 1.86353C366.981 1.89828 365.586 2.37162 364.427 3.21912C363.268 4.06662 362.4 5.24713 361.943 6.6L337.802 73.7958C337.683 74.167 337.448 74.4911 337.131 74.7212C336.814 74.9513 336.431 75.0753 336.037 75.0753C335.644 75.0753 335.261 74.9513 334.944 74.7212C334.626 74.4911 334.391 74.167 334.273 73.7958L310.069 6.6C309.609 5.25798 308.741 4.08972 307.584 3.25558C306.427 2.42143 305.037 1.96229 303.606 1.94117H303.465C298.602 1.94117 295.261 7.19011 297.049 12.0353L325.88 89.791C326.636 91.9068 328.012 93.7508 329.833 95.0866C331.608 96.3768 333.749 97.078 335.951 97.0899C338.183 97.0481 340.347 96.3244 342.147 95.0178C343.947 93.7112 345.295 91.8856 346.006 89.791L374.9 11.9576C375.197 11.1085 375.351 10.2165 375.355 9.31764C375.397 8.37682 375.25 7.43705 374.924 6.5524C374.598 5.66775 374.098 4.85568 373.454 4.16291C372.81 3.47014 372.033 2.91034 371.17 2.51572C370.306 2.12111 369.372 1.89946 368.421 1.86353Z" fill="#5C57FF"/>
<path d="M441.535 15.2344H392.155V1.86353H441.503" fill="#5C57FF"/>
<path d="M521.409 66.0932C521.016 65.4537 520.758 64.7429 520.648 64.0027C520.538 63.2624 520.58 62.5079 520.77 61.7839C520.96 61.0598 521.295 60.3809 521.755 59.7873C522.215 59.1938 522.791 58.6977 523.448 58.3284C527.349 56.3155 530.66 53.3419 533.064 49.6941C536.66 44.4583 538.553 38.2596 538.491 31.9284C538.567 24.2189 535.775 16.7512 530.648 10.9482C525.419 4.85033 518.392 1.80139 509.566 1.80139H472.468C471.783 1.82339 471.11 1.97932 470.486 2.26019C469.863 2.54105 469.301 2.94131 468.835 3.43789C468.368 3.93446 468.005 4.51755 467.767 5.15353C467.53 5.78952 467.421 6.46584 467.448 7.14351V91.1731C467.393 92.6494 467.932 94.087 468.947 95.1702C469.962 96.2533 471.369 96.8935 472.86 96.9501H475.731C477.219 96.8895 478.622 96.2476 479.634 95.1648C480.645 94.0821 481.182 92.6468 481.127 91.1731V66.9939C481.08 65.6289 481.582 64.3013 482.524 63.3027C483.465 62.304 484.768 61.7159 486.146 61.6673H500.734C501.588 61.6701 502.426 61.8955 503.164 62.3208C503.902 62.746 504.514 63.3562 504.938 64.0899L523.401 94.5275C523.84 95.2738 524.466 95.8949 525.219 96.3303C525.973 96.7658 526.827 97.0007 527.699 97.0122H531.15C535.244 97.0122 537.675 92.1826 535.417 88.5642L521.409 66.0932ZM508.64 48.5139H486.052C484.672 48.4573 483.371 47.8618 482.433 46.8578C481.495 45.8537 480.997 44.5228 481.048 43.1562L481.142 18.8993C481.108 17.905 481.474 16.938 482.159 16.2102C482.844 15.4825 483.793 15.0534 484.797 15.0169H509.158C511.349 14.9374 513.53 15.3422 515.544 16.2018C517.557 17.0614 519.352 18.3542 520.797 19.9863C522.389 21.7714 523.598 23.8573 524.353 26.1179C525.108 28.3786 525.392 30.7673 525.189 33.1397C525.041 35.8251 524.228 38.4332 522.821 40.7336C521.409 43.1966 519.338 45.2261 516.836 46.5988C514.334 47.9715 511.498 48.6342 508.64 48.5139Z" fill="#5C57FF"/>
<path d="M615.683 54.0889C611.777 50.3308 605.989 47.1162 598.334 44.5539L576.656 37.0998C573.456 36.2735 570.5 34.709 568.028 32.5341C567.137 31.6451 566.436 30.5873 565.967 29.4239C565.498 28.2606 565.271 27.0155 565.299 25.7633C565.324 24.0101 565.763 22.287 566.58 20.7314C567.397 19.1757 568.57 17.8305 570.005 16.8028C573.44 14.1887 577.691 12.848 582.02 13.0136C587.259 12.8915 592.417 14.3072 596.844 17.0823C599.614 18.8049 602.017 21.0469 603.918 23.6823C604.51 24.5497 605.303 25.2644 606.231 25.7668C607.159 26.2693 608.194 26.5449 609.252 26.5708C609.881 26.5716 610.506 26.472 611.102 26.2758C612.16 25.8758 613.109 25.236 613.871 24.4077C614.634 23.5794 615.191 22.5857 615.496 21.5062C615.801 20.4267 615.846 19.2914 615.628 18.1915C615.41 17.0915 614.934 16.0575 614.24 15.1722C611.69 11.9371 608.653 9.10885 605.236 6.78634C598.383 2.17255 590.243 -0.200635 581.958 -1.3914e-05C573.95 -0.231573 566.151 2.54203 560.122 7.76469C557.392 10.0206 555.197 12.845 553.695 16.0365C552.193 19.228 551.421 22.7082 551.432 26.2292C551.432 37.3016 558.02 45.0663 571.275 49.5233L593.487 57.1638C598.538 58.8875 602.099 60.7976 604.263 62.9873C605.306 64.0502 606.121 65.3105 606.66 66.6927C607.2 68.0749 607.451 69.5507 607.401 71.0315C607.401 74.9449 605.503 78.3769 601.738 81.3741C597.61 84.4929 592.511 86.0859 587.322 85.8776C581.1 86.0157 575.016 84.0552 570.067 80.3181C566.698 77.7822 563.907 74.5699 561.879 70.8918C561.205 69.5775 560.081 68.5434 558.707 67.9744C557.333 67.4054 555.8 67.3386 554.381 67.7859L553.895 67.9256C552.92 68.2848 552.036 68.8487 551.303 69.5785C550.57 70.3083 550.005 71.1867 549.647 72.1533C549.289 73.1199 549.147 74.1517 549.231 75.1778C549.314 76.2039 549.621 77.1999 550.13 78.0974C552.914 82.9684 556.646 87.2439 561.111 90.6762C568.413 96.2552 577.444 99.1532 586.663 98.8757H587.04C597.215 98.8757 605.518 96.0856 611.95 90.5054C615.003 87.9973 617.449 84.8418 619.105 81.2722C620.761 77.7025 621.586 73.81 621.518 69.8823C621.518 63.127 619.604 57.8626 615.683 54.0889Z" fill="#5C57FF"/>
<path d="M708.529 87.3374L679.965 9.69033C679.197 7.43121 677.745 5.46145 675.805 4.04965C673.865 2.63786 671.533 1.85275 669.126 1.80139H667.557C665.147 1.84959 662.812 2.63323 660.869 4.04525C658.926 5.45726 657.471 7.42876 656.702 9.69033L628.153 87.3374C627.844 88.1674 627.69 89.0462 627.699 89.9308C627.635 91.7422 628.299 93.5047 629.546 94.8321C630.793 96.1595 632.52 96.9434 634.349 97.0122C635.728 96.9877 637.065 96.5396 638.175 95.73C639.285 94.9204 640.113 93.7893 640.546 92.4932L645.079 80.0696C645.668 78.2967 646.797 76.7478 648.311 75.6355C649.824 74.5233 651.649 73.9023 653.534 73.8579H683.181C685.066 73.9001 686.891 74.5202 688.406 75.6327C689.92 76.7453 691.048 78.2955 691.635 80.0696L696.184 92.4932C696.64 93.8043 697.488 94.9472 698.616 95.7699C699.702 96.5763 701.023 97.0122 702.38 97.0122C707.024 97.0122 710.239 91.9807 708.529 87.3374ZM681.126 60.8597H655.526C655.114 60.8405 654.714 60.7236 654.357 60.5191C654.001 60.3145 653.699 60.0283 653.478 59.6843C653.257 59.3404 653.122 58.9488 653.085 58.5426C653.048 58.1364 653.111 57.7275 653.267 57.3501L666.114 22.0828C666.266 21.6073 666.566 21.192 666.972 20.8973C667.379 20.6025 667.869 20.4436 668.373 20.4436C668.876 20.4436 669.367 20.6025 669.773 20.8973C670.179 21.192 670.48 21.6073 670.632 22.0828L683.369 57.3501C683.525 57.7263 683.587 58.1339 683.551 58.539C683.515 58.944 683.382 59.3347 683.163 59.6783C682.943 60.0219 682.643 60.3085 682.289 60.514C681.935 60.7195 681.536 60.8381 681.126 60.8597Z" fill="#5C57FF"/>
<path d="M188.407 53.8094C187.67 54.9275 186.839 56.0767 186.023 57.2725C181.707 63.1928 176.724 68.6061 171.168 73.4075L161.348 94.0927C163.105 93.0988 164.846 92.0273 166.525 90.8626C182.384 80.1007 195.576 63.1426 199.764 55.1449C200.133 54.4777 200.458 53.7878 200.737 53.0795L204.643 25.872V25.7788C201.364 32.6118 203.278 31.2141 188.407 53.8094Z" fill="#5C57FF"/>
<path d="M392.155 41.9294V55.2691H441.503V41.9294H392.155Z" fill="#5C57FF"/>
<path d="M392.155 82.8028V96.1426H441.503V82.8028H392.155Z" fill="#5C57FF"/>
<path d="M173.364 14.3492C169.222 9.79245 164.133 6.176 158.448 3.74757C152.762 1.31914 146.613 0.13611 140.423 0.279526C134.233 0.138172 128.085 1.32214 122.399 3.75043C116.714 6.17873 111.625 9.79408 107.482 14.3492C101.125 21.1625 96.9256 29.6717 95.4034 38.8235C93.9696 46.931 94.1775 55.2396 96.0152 63.2668C97.9483 71.336 101.958 78.7724 107.654 84.8527C111.784 89.4328 116.867 93.0731 122.554 95.5233C128.24 97.9735 134.395 99.1755 140.595 99.0466C147.817 99.1472 154.952 97.4773 161.364 94.1859C163.168 93.2387 164.899 92.159 166.54 90.9558C168.994 89.156 171.264 87.1223 173.317 84.8838C180.362 77.2808 184.794 67.6636 185.975 57.4122C186.304 54.8369 186.467 52.2434 186.462 49.6475C186.509 35.376 182.117 23.7134 173.364 14.3492ZM140.58 85.536V85.4118C136.151 85.5368 131.751 84.6638 127.713 82.8586C123.675 81.0535 120.104 78.3633 117.27 74.9915C111.164 67.8243 107.947 58.6774 108.235 49.3059C107.974 40.0974 111.209 31.1265 117.301 24.1638C120.169 20.8552 123.748 18.2232 127.775 16.4606C131.803 14.6979 136.178 13.8492 140.58 13.9765C144.972 13.8642 149.333 14.7264 153.345 16.4999C157.357 18.2734 160.917 20.9132 163.764 24.2259C169.855 31.2202 173.088 40.2142 172.83 49.4456C173.095 58.8036 169.893 67.9342 163.827 75.1158C161.004 78.4845 157.444 81.1733 153.416 82.9786C149.389 84.784 144.999 85.6585 140.58 85.536Z" fill="#5C57FF"/>
</svg>
